<svg width="125" height="45" viewBox="0 0 125 45" fill="none" xmlns="http://www.w3.org/2000/svg">
<path d="M17.4098 27.0331V25.3594C17.4098 24.1282 17.352 23.2817 17.2366 22.82C17.1212 22.3583 16.9096 22.1274 16.6018 22.1274C16.4094 22.1274 16.2555 22.1851 16.14 22.3005C16.14 22.3775 16.1785 22.6853 16.2555 23.224V28.6491C16.2555 28.7646 16.2362 28.9377 16.1978 29.1686C16.1978 29.3994 16.1785 29.5533 16.14 29.6303V30.1497C16.2939 30.2267 16.4478 30.2651 16.6018 30.2651C16.9096 30.2651 17.1212 30.0343 17.2366 29.5726C17.352 29.1108 17.4098 28.2644 17.4098 27.0331ZM5.28972 20.2805C5.90534 18.8569 6.34782 17.895 6.61716 17.3948C7.73297 14.9323 9.59907 12.9316 12.2155 11.3925C14.8703 9.85346 17.6214 9.10317 20.4686 9.14165C23.3543 9.14165 26.0669 10.0266 28.6064 11.7965C30.4147 13.3356 31.8384 15.2017 32.8772 17.3948C34.1085 19.7034 34.9357 22.1466 35.3589 24.7245C35.8207 27.3025 35.7822 29.9381 35.2435 32.6314C34.7049 35.3248 33.6083 37.6911 31.9538 39.7303C30.2993 41.6156 28.2216 42.8661 25.7206 43.4817C23.2582 44.0589 20.8149 44.0974 18.3909 43.5972C16.0054 43.0585 13.716 42.1351 11.5229 40.8269L7.65602 38.8646C6.73258 38.4413 5.96306 37.8257 5.34744 37.0177C2.07695 33.0931 2.05771 27.5141 5.28972 20.2805Z" fill="url(#paint0_linear_179_133)"/>
<path d="M45.748 15.3171C45.748 7.3525 52.212 0.888481 60.1766 0.888481V15.3171C60.1766 23.2817 53.7126 29.7457 45.748 29.7457V15.3171ZM60.1766 44.1743H45.748V29.7457C53.7126 29.7457 60.1766 36.2097 60.1766 44.1743ZM61.9238 15.3171C69.8884 15.3171 76.3524 21.7811 76.3524 29.7457H61.9238V15.3171ZM76.3524 44.1743H61.9238C61.9238 36.2097 68.3878 29.7457 76.3524 29.7457V44.1743ZM92.5283 15.3171V29.7457H78.0996C78.0996 21.7811 84.5637 15.3171 92.5283 15.3171ZM78.0996 44.1743V29.7457C86.0642 29.7457 92.5283 36.2097 92.5283 44.1743H78.0996ZM94.2755 44.1743V29.7457C94.2755 21.7811 100.739 15.3171 108.704 15.3171V29.7457C108.704 37.7103 102.24 44.1743 94.2755 44.1743ZM110.451 15.3171C110.451 7.3525 116.915 0.888481 124.88 0.888481V15.3171C124.88 23.2817 118.416 29.7457 110.451 29.7457V15.3171ZM124.88 44.1743H110.451V29.7457C118.416 29.7457 124.88 36.2097 124.88 44.1743Z" fill="white"/>
<defs>
<linearGradient id="paint0_linear_179_133" x1="64" y1="-17.8257" x2="64" y2="63.1743" gradientUnits="userSpaceOnUse">
<stop stop-color="#49AFE6"/>
<stop offset="1" stop-color="#ECD41F"/>
</linearGradient>
</defs>
</svg>
