<svg width="31" height="30" viewBox="0 0 31 30" fill="none" xmlns="http://www.w3.org/2000/svg">
<path d="M15.7285 0C7.49755 0 0.801025 6.69653 0.801025 14.9277C0.801025 23.1589 7.49755 29.8554 15.7285 29.8554C23.9596 29.8554 30.6564 23.1589 30.6564 14.9277C30.6564 6.69653 23.9594 0 15.7285 0ZM15.7285 28.3831C8.30928 28.3831 2.27333 22.3469 2.27333 14.9277C2.27333 7.5085 8.30928 1.4723 15.7285 1.4723C23.1477 1.4723 29.1841 7.5085 29.1841 14.9277C29.1841 22.3469 23.1477 28.3831 15.7285 28.3831Z" fill="#484E53"/>
<path d="M15.6656 6.58481C11.0651 6.58481 7.32251 10.3274 7.32251 14.9276C7.32251 19.5281 11.0651 23.2707 15.6656 23.2707C20.266 23.2707 24.0086 19.5281 24.0086 14.9276C24.0086 10.3274 20.266 6.58481 15.6656 6.58481ZM21.1119 10.7463C22.0009 11.8991 22.4984 13.3058 22.5319 14.7612C20.7907 14.4908 19.2455 14.5299 17.8907 14.7706C17.6714 14.2569 17.4379 13.7494 17.1904 13.2487C18.5881 12.6556 19.9524 11.848 21.1119 10.7463ZM20.0933 9.68008C19.0484 10.6709 17.7943 11.398 16.5001 11.9315C15.5085 10.1409 14.5648 8.83572 14.1074 8.23722C14.6181 8.11776 15.1408 8.05733 15.6653 8.05711C17.3516 8.05711 18.8965 8.66861 20.0933 9.68008ZM12.9057 8.63745L12.6895 8.81559C12.7124 8.84332 13.8406 10.2344 15.0833 12.4397C12.5212 13.2318 10.0477 13.3716 8.97002 13.3905C9.4598 11.2581 10.9432 9.50218 12.9057 8.63745ZM8.79481 14.9276C8.79481 14.9073 8.79604 14.8871 8.79629 14.8668C9.88653 14.865 12.7838 14.7554 15.7922 13.7714C16.0161 14.218 16.2286 14.6702 16.4294 15.1276C13.1379 16.1472 11.2018 18.3085 10.422 19.3602C9.40803 18.163 8.79481 16.6159 8.79481 14.9276ZM11.4911 20.3798C12.0371 19.5745 13.7604 17.4085 16.9806 16.4767C17.5388 17.9635 17.9928 19.5884 18.209 21.2799L18.3155 21.2661C17.4764 21.6183 16.5755 21.7993 15.6656 21.7984C14.1556 21.7996 12.6877 21.3008 11.4911 20.3798ZM19.592 20.5607C19.3515 19.0106 18.9392 17.5302 18.4413 16.1629C19.604 15.9948 20.9239 15.9911 22.4102 16.2331C22.0657 18.0168 21.0294 19.5558 19.592 20.5607Z" fill="#A9A9A9"/>
</svg>
