<svg width="30" height="30" viewBox="0 0 30 30" fill="none" xmlns="http://www.w3.org/2000/svg">
<path d="M15.073 0C6.84204 0 0.145508 6.69653 0.145508 14.9277C0.145508 23.1591 6.84204 29.8554 15.073 29.8554C23.3041 29.8554 30.0009 23.1591 30.0009 14.9277C30.0006 6.69653 23.3039 0 15.073 0ZM15.073 28.3831C7.65377 28.3831 1.61781 22.3471 1.61781 14.9277C1.61781 7.5085 7.65377 1.4723 15.073 1.4723C22.4921 1.4723 28.5286 7.5085 28.5286 14.9277C28.5283 22.3471 22.4921 28.3831 15.073 28.3831Z" fill="#484E53"/>
<path d="M21.7352 10.0638C22.0783 9.88667 22.8998 9.36032 23.2871 8.23057C23.2871 8.23057 22.3539 8.90538 21.0837 8.98488L21.0607 8.99764C20.7278 8.63343 20.3227 8.34268 19.8711 8.14397C19.4195 7.94525 18.9314 7.84295 18.438 7.8436C16.473 7.8436 14.8802 9.43663 14.8802 11.4017C14.8802 11.6998 14.9173 11.9894 14.9867 12.2662L14.9695 12.2404C14.9695 12.2404 11.1587 12.4588 7.56604 8.52847C7.56604 8.52847 5.97767 11.2279 8.69726 13.2924C8.10171 13.3915 7.04999 12.8556 7.04999 12.8556C7.04999 12.8556 7.10938 15.6937 9.92786 16.3886C9.47144 16.5079 8.61775 16.5471 8.33998 16.4284C8.33998 16.4284 8.75664 18.5917 11.635 18.9691C10.9006 19.386 9.53107 20.6561 6.43433 20.4178C6.43433 20.4178 8.658 22.2437 12.7866 21.9861C16.9152 21.7284 19.9125 18.9489 21.1233 16.0115C22.334 13.074 21.9971 11.4014 21.9971 11.4014C21.9971 11.4014 23.0088 10.8704 23.7042 9.6003C23.383 9.6965 22.1917 9.98752 21.7483 10.0952C21.7438 10.0848 21.7394 10.0744 21.7352 10.0638Z" fill="#A9A9A9"/>
</svg>
