<svg width="129" height="59" viewBox="0 0 129 59" fill="none" xmlns="http://www.w3.org/2000/svg">
<path d="M0.865717 15.3171C0.865717 7.3525 7.32973 0.888481 15.2943 0.888481V15.3171C15.2943 23.2817 8.83031 29.7457 0.865717 29.7457V15.3171ZM15.2943 44.1743H0.865717V29.7457C8.83031 29.7457 15.2943 36.2097 15.2943 44.1743ZM17.0415 15.3171C25.0061 15.3171 31.4702 21.7811 31.4702 29.7457H17.0415V15.3171ZM31.4702 44.1743H17.0415C17.0415 36.2097 23.5056 29.7457 31.4702 29.7457V44.1743ZM47.646 15.3171V29.7457H33.2174C33.2174 21.7811 39.6814 15.3171 47.646 15.3171ZM33.2174 44.1743V29.7457C41.182 29.7457 47.646 36.2097 47.646 44.1743H33.2174ZM49.3932 44.1743V29.7457C49.3932 21.7811 55.8572 15.3171 63.8218 15.3171V29.7457C63.8218 37.7103 57.3578 44.1743 49.3932 44.1743ZM65.569 15.3171C65.569 7.3525 72.033 0.888481 79.9976 0.888481V15.3171C79.9976 23.2817 73.5336 29.7457 65.569 29.7457V15.3171ZM79.9976 44.1743H65.569V29.7457C73.5336 29.7457 79.9976 36.2097 79.9976 44.1743Z" fill="white"/>
<path d="M96.1735 15.3171H81.7448V0.888481C89.7094 0.888481 96.1735 7.3525 96.1735 15.3171ZM96.1735 44.1743C88.2089 44.1743 81.7448 37.7103 81.7448 29.7457C81.7448 21.7811 88.2089 15.3171 96.1735 15.3171V44.1743ZM97.9207 29.7457V15.3171H112.349C112.349 23.2817 105.885 29.7457 97.9207 29.7457ZM97.9207 58.6029V44.1743C97.9207 36.2097 104.385 29.7457 112.349 29.7457V44.1743C112.349 52.1389 105.885 58.6029 97.9207 58.6029ZM114.096 29.7457V15.3171H128.525C128.525 23.2817 122.061 29.7457 114.096 29.7457ZM114.096 29.7457H128.525V44.1743C120.561 44.1743 114.096 37.7103 114.096 29.7457Z" fill="url(#paint0_linear_172_98)"/>
<defs>
<linearGradient id="paint0_linear_172_98" x1="78.9286" y1="21.6449" x2="130.013" y2="22.0699" gradientUnits="userSpaceOnUse">
<stop stop-color="#3E28CB"/>
<stop offset="1" stop-color="#BE6082"/>
</linearGradient>
</defs>
</svg>
