<svg width="149" height="86" viewBox="0 0 149 86" fill="none" xmlns="http://www.w3.org/2000/svg">
<mask id="path-1-outside-1_219_195" maskUnits="userSpaceOnUse" x="-1" y="-1" width="151" height="88" fill="black">
<rect fill="white" x="-1" y="-1" width="151" height="88"/>
<path d="M88.6842 0.397891L84.9705 16.8442C87.8 18.2589 90.8063 21.3537 93.9895 26.1284C96.9958 30.9032 98.7642 36.12 99.2947 41.7789L81.2568 44.6968V85.2821H148.368V60.6126C148.368 44.3432 143.682 30.8147 134.309 20.0274C124.76 9.24 109.552 2.69684 88.6842 0.397891ZM8.30947 0.397891L4.59578 16.8442C7.42526 18.2589 10.4316 21.3537 13.6147 26.1284C16.621 30.9032 18.3895 36.12 18.92 41.7789L0.8821 44.6968V85.2821H67.9937V60.6126C67.9937 44.3432 63.3074 30.8147 53.9347 20.0274C44.3853 9.24 29.1768 2.69684 8.30947 0.397891Z"/>
</mask>
<path d="M88.6842 0.397892L87.7858 0.195019L87.967 -0.607742L88.7851 -0.51762L88.6842 0.397892ZM84.9705 16.8442L84.5586 17.668L83.9131 17.3453L84.0721 16.6413L84.9705 16.8442ZM93.9895 26.1284L94.7558 25.6175L94.7625 25.6275L94.7689 25.6377L93.9895 26.1284ZM99.2947 41.7789L100.212 41.693L100.292 42.5506L99.4418 42.6882L99.2947 41.7789ZM81.2568 44.6968H80.3358V43.9128L81.1098 43.7876L81.2568 44.6968ZM81.2568 85.2821V86.2032H80.3358V85.2821H81.2568ZM148.368 85.2821H149.289V86.2032H148.368V85.2821ZM134.309 20.0274L134.999 19.4168L135.005 19.4233L134.309 20.0274ZM8.30946 0.397892L7.41104 0.195019L7.5923 -0.607742L8.41032 -0.51762L8.30946 0.397892ZM4.59578 16.8442L4.18388 17.668L3.53839 17.3453L3.69736 16.6413L4.59578 16.8442ZM13.6147 26.1284L14.3811 25.6175L14.3878 25.6275L14.3941 25.6377L13.6147 26.1284ZM18.92 41.7789L19.837 41.693L19.9174 42.5506L19.0671 42.6882L18.92 41.7789ZM0.882095 44.6968H-0.0389557V43.9128L0.735016 43.7876L0.882095 44.6968ZM0.882095 85.2821V86.2032H-0.0389557V85.2821H0.882095ZM67.9937 85.2821H68.9147V86.2032H67.9937V85.2821ZM53.9347 20.0274L54.6244 19.4168L54.63 19.4233L53.9347 20.0274ZM89.5826 0.600765L85.869 17.0471L84.0721 16.6413L87.7858 0.195019L89.5826 0.600765ZM85.3824 16.0204C88.4297 17.544 91.5455 20.8021 94.7558 25.6175L93.2231 26.6393C90.0671 21.9053 87.1702 18.9738 84.5586 17.668L85.3824 16.0204ZM94.7689 25.6377C97.8528 30.5356 99.6679 35.8913 100.212 41.693L98.3777 41.8649C97.8606 36.3487 96.1388 31.2707 93.21 26.6192L94.7689 25.6377ZM99.4418 42.6882L81.4039 45.6061L81.1098 43.7876L99.1477 40.8697L99.4418 42.6882ZM82.1779 44.6968V85.2821H80.3358V44.6968H82.1779ZM81.2568 84.3611H148.368V86.2032H81.2568V84.3611ZM147.447 85.2821V60.6126H149.289V85.2821H147.447ZM147.447 60.6126C147.447 44.5324 142.821 31.2281 133.614 20.6315L135.005 19.4233C144.543 30.4014 149.289 44.1539 149.289 60.6126H147.447ZM133.62 20.6379C124.279 10.0858 109.326 3.59859 88.5834 1.3134L88.7851 -0.51762C109.777 1.79509 125.241 8.39423 134.999 19.4169L133.62 20.6379ZM9.2079 0.600765L5.49422 17.0471L3.69736 16.6413L7.41104 0.195019L9.2079 0.600765ZM5.00769 16.0204C8.05501 17.544 11.1708 20.8021 14.3811 25.6175L12.8484 26.6393C9.69234 21.9053 6.79552 18.9738 4.18388 17.668L5.00769 16.0204ZM14.3941 25.6377C17.478 30.5356 19.2931 35.8913 19.837 41.693L18.003 41.8649C17.4858 36.3487 15.7641 31.2707 12.8353 26.6192L14.3941 25.6377ZM19.0671 42.6882L1.02917 45.6061L0.735016 43.7876L18.7729 40.8697L19.0671 42.6882ZM1.80315 44.6968V85.2821H-0.0389557V44.6968H1.80315ZM0.882095 84.3611H67.9937V86.2032H0.882095V84.3611ZM67.0726 85.2821V60.6126H68.9147V85.2821H67.0726ZM67.0726 60.6126C67.0726 44.5324 62.4464 31.2281 53.2395 20.6315L54.63 19.4233C64.1684 30.4014 68.9147 44.1539 68.9147 60.6126H67.0726ZM53.2451 20.6379C43.9039 10.0858 28.951 3.59859 8.2086 1.3134L8.41032 -0.51762C29.4026 1.79509 44.8666 8.39423 54.6244 19.4169L53.2451 20.6379Z" fill="#C7C7C7" mask="url(#path-1-outside-1_219_195)"/>
</svg>
