<svg width="37" height="38" viewBox="0 0 37 38" fill="none" xmlns="http://www.w3.org/2000/svg">
<g id="Outline/Brands/Gmail">
<g id="Icon">
<path d="M9.3519 10.8714C9.00433 10.6766 8.58397 10.6864 8.24507 10.897C7.90617 11.1076 7.69864 11.4881 7.69864 11.8989V26.6807C7.69864 27.3252 8.20077 27.8477 8.82018 27.8477C9.43959 27.8477 9.94172 27.3252 9.94172 26.6807V13.8527L18.0085 18.3723C18.3404 18.5583 18.74 18.5583 19.0719 18.3723L27.1387 13.8527V26.6807C27.1387 27.3252 27.6408 27.8477 28.2602 27.8477C28.8796 27.8477 29.3818 27.3252 29.3818 26.6807V11.8989C29.3818 11.4881 29.1742 11.1076 28.8353 10.897C28.4964 10.6864 28.0761 10.6766 27.7285 10.8714L18.5402 16.0194L9.3519 10.8714Z" fill="#C9C9C9"/>
<path fill-rule="evenodd" clip-rule="evenodd" d="M26.4816 6.02011C21.1979 5.52854 15.8826 5.52854 10.5988 6.02011L8.32982 6.2312C5.8959 6.45764 3.92936 8.39239 3.57586 10.9083C2.83116 16.2085 2.83116 21.5931 3.57586 26.8933C3.92936 29.4092 5.8959 31.344 8.32982 31.5704L10.5988 31.7815C15.8826 32.2731 21.1979 32.2731 26.4816 31.7815L28.7506 31.5704C31.1845 31.344 33.1511 29.4092 33.5046 26.8933C34.2493 21.5931 34.2493 16.2085 33.5046 10.9083C33.1511 8.39239 31.1845 6.45764 28.7506 6.2312L26.4816 6.02011ZM10.7986 8.34481C15.9494 7.8656 21.131 7.8656 26.2818 8.34481L28.5509 8.55591C29.9507 8.68614 31.0818 9.79891 31.2851 11.2459C31.9983 16.3222 31.9983 21.4794 31.2851 26.5557C31.0818 28.0027 29.9507 29.1155 28.5509 29.2457L26.2818 29.4568C21.131 29.936 15.9494 29.936 10.7986 29.4568L8.52958 29.2457C7.12972 29.1155 5.99866 28.0027 5.79535 26.5557C5.08211 21.4794 5.08211 16.3222 5.79535 11.2459C5.99866 9.79891 7.12972 8.68614 8.52958 8.55591L10.7986 8.34481Z" fill="#C9C9C9"/>
</g>
</g>
</svg>
