<svg width="31" height="30" viewBox="0 0 31 30" fill="none" xmlns="http://www.w3.org/2000/svg">
<path d="M15.281 0C7.05005 0 0.353516 6.69653 0.353516 14.9277C0.353516 23.1591 7.05005 29.8554 15.281 29.8554C23.5121 29.8554 30.2089 23.1591 30.2089 14.9277C30.2087 6.69653 23.5119 0 15.281 0ZM15.281 28.3831C7.86177 28.3831 1.82582 22.3471 1.82582 14.9277C1.82582 7.5085 7.86177 1.4723 15.281 1.4723C22.7001 1.4723 28.7366 7.5085 28.7366 14.9277C28.7363 22.3471 22.7001 28.3831 15.281 28.3831Z" fill="#484E53"/>
<path d="M7.69897 11.7645H11.1535V20.7784H7.69897V11.7645Z" fill="#A9A9A9"/>
<path d="M9.39216 10.3261C10.3578 10.3261 11.1405 9.61203 11.1405 8.73113C11.1405 7.85024 10.3578 7.13614 9.39216 7.13614C8.42657 7.13614 7.6438 7.85024 7.6438 8.73113C7.6438 9.61203 8.42657 10.3261 9.39216 10.3261Z" fill="#A9A9A9"/>
<path d="M19.8373 11.5605C19.1298 11.5605 18.5303 11.6893 18.0376 11.9467C17.5454 12.2044 17.059 12.6328 16.5778 13.2325V11.7642H13.3608V20.7781H16.8154V16.4493C16.8154 15.6287 16.9457 15.0604 17.206 14.7434C17.4664 14.4266 17.8055 14.2681 18.2244 14.2681C18.6035 14.2681 18.8977 14.3856 19.1072 14.6204C19.3168 14.8553 19.4211 15.2555 19.4211 15.8216V20.7781H22.8928V15.0491C22.8928 13.8607 22.6224 12.9822 22.0818 12.4134C21.5419 11.8446 20.7933 11.5605 19.8373 11.5605Z" fill="#A9A9A9"/>
</svg>
