<svg width="31" height="30" viewBox="0 0 31 30" fill="none" xmlns="http://www.w3.org/2000/svg">
<path d="M15.6251 0C7.39409 0 0.69751 6.69653 0.69751 14.9277C0.69751 23.1589 7.39409 29.8554 15.6251 29.8554C23.8563 29.8554 30.5529 23.1589 30.5529 14.9277C30.5529 6.69653 23.8561 0 15.6251 0ZM15.6251 28.3831C8.20583 28.3831 2.16983 22.3469 2.16983 14.9277C2.16983 7.5085 8.20583 1.4723 15.6251 1.4723C23.0443 1.4723 29.0806 7.5085 29.0806 14.9277C29.0806 22.3469 23.0443 28.3831 15.6251 28.3831Z" fill="#484E53"/>
<path d="M20.2923 7.73764H10.9504C9.57259 7.73764 8.45142 8.85855 8.45142 10.2366V19.6213C8.45142 20.9992 9.57234 22.1203 10.9504 22.1203H20.292C21.6699 22.1203 22.791 20.9994 22.791 19.6213V10.2364C22.791 8.85855 21.6701 7.73764 20.2923 7.73764ZM17.7822 14.9024C17.7822 16.0939 16.8129 17.0632 15.6214 17.0632C14.4298 17.0632 13.4605 16.0939 13.4605 14.9024C13.4605 14.3112 13.6995 13.7753 14.0852 13.3849H17.1572C17.5579 13.7883 17.7826 14.3338 17.7822 14.9024ZM18.4087 9.73703H20.5975V11.9919H18.4087V9.73703ZM20.2923 20.6478H10.9504C10.6782 20.6475 10.4173 20.5392 10.2248 20.3467C10.0323 20.1542 9.92406 19.8933 9.92373 19.6211V13.3849H12.3246C12.1035 13.8603 11.9887 14.3781 11.9882 14.9024C11.9882 16.9059 13.618 18.5355 15.6214 18.5355C17.6247 18.5355 19.2545 16.9057 19.2545 14.9024C19.2545 14.3603 19.1318 13.8475 18.9181 13.3849H21.3187V19.6211C21.3184 19.8932 21.2102 20.1542 21.0177 20.3466C20.8253 20.5391 20.5644 20.6474 20.2923 20.6478Z" fill="#A9A9A9"/>
</svg>
