<svg width="37" height="37" viewBox="0 0 37 37" fill="none" xmlns="http://www.w3.org/2000/svg">
<g id="upwork 1" clip-path="url(#clip0_219_215)">
<path id="Vector" d="M20.6765 31.5967H16.652C16.54 31.5965 16.4294 31.5706 16.3284 31.5211C16.2273 31.4716 16.1384 31.3996 16.068 31.3104C15.9977 31.2211 15.9477 31.117 15.9217 31.0055C15.8958 30.8939 15.8945 30.7779 15.918 30.6658L18.2492 19.6494C17.7628 19.0104 17.3108 18.3448 16.8952 17.6556C16.3443 21.7691 12.8437 24.9502 8.61949 24.9502C4.01704 24.9518 0.271729 21.1716 0.271729 16.5251V6.25206C0.271729 6.04837 0.350805 5.85302 0.491563 5.70899C0.632321 5.56496 0.82323 5.48404 1.02229 5.48404H4.95824C5.15731 5.48404 5.34821 5.56496 5.48897 5.70899C5.62973 5.85302 5.70881 6.04837 5.70881 6.25206V16.5251C5.71031 18.1272 7.01779 19.4343 8.61949 19.4374C10.2227 19.4343 11.5302 18.1272 11.5317 16.5251V6.25206C11.5317 6.04837 11.6108 5.85302 11.7515 5.70899C11.8923 5.56496 12.0832 5.48404 12.2822 5.48404H16.2182C16.5514 5.48404 16.8442 5.7083 16.9372 6.03394C17.6508 8.48263 18.6481 10.8352 19.908 13.0413C21.4001 9.65899 24.2327 7.68672 27.7213 7.68672C32.4499 7.68672 36.2957 11.556 36.2957 16.31C36.2957 21.0748 32.4499 24.9502 27.7213 24.9502C26.0565 24.9497 24.4159 24.5426 22.9357 23.7629L21.4061 30.9899C21.3715 31.1616 21.2799 31.3158 21.147 31.4264C21.0141 31.5369 20.8479 31.5971 20.6765 31.5967ZM17.5827 30.0606H20.0701L21.6868 22.4188C21.7113 22.2978 21.7643 22.1846 21.841 22.0891C21.9178 21.9936 22.016 21.9186 22.1274 21.8705C22.2387 21.8225 22.3598 21.8028 22.4802 21.8132C22.6006 21.8237 22.7168 21.8639 22.8186 21.9304C24.3543 22.9165 26.004 23.4157 27.7228 23.4157C31.6242 23.4157 34.7961 20.2284 34.7961 16.3116C34.7961 12.4039 31.6227 9.22429 27.7228 9.22429C24.4474 9.22429 21.8609 11.3763 20.8026 14.9829C20.7609 15.1213 20.682 15.2448 20.5748 15.3394C20.4677 15.434 20.3367 15.4959 20.1968 15.5178C20.0569 15.5398 19.9138 15.521 19.7839 15.4636C19.654 15.4062 19.5425 15.3125 19.4621 15.1933C17.934 12.8862 16.565 9.93547 15.6643 7.02161H13.0343V16.5266C13.0313 18.9766 11.0513 20.9719 8.62099 20.975C6.19067 20.9719 4.21218 18.9766 4.20918 16.5281V7.02008H1.77285V16.5251C1.77285 20.3252 4.84416 23.4157 8.61949 23.4157C12.3963 23.4157 15.4691 20.3237 15.4691 16.5251V14.8047C15.4691 14.6309 15.5267 14.4621 15.6326 14.3262C15.7384 14.1902 15.8862 14.0949 16.0518 14.0561C16.2174 14.0172 16.391 14.0369 16.5442 14.1121C16.6974 14.1873 16.8211 14.3134 16.8952 14.4699C17.7193 16.204 18.644 17.7186 19.6423 18.9735C19.7135 19.0627 19.7641 19.1671 19.7903 19.2791C19.8166 19.3911 19.8178 19.5077 19.7939 19.6202L17.5827 30.0606ZM27.7243 20.9811C26.0641 20.9811 24.4188 20.3283 22.8352 19.0411C22.7254 18.952 22.6423 18.8333 22.5951 18.6984C22.5478 18.5635 22.5385 18.4178 22.568 18.2777L22.8952 16.7248C23.4806 13.4791 25.2385 11.6374 27.7243 11.6374C30.2822 11.6374 32.3628 13.7326 32.3628 16.3085C32.3628 18.886 30.2807 20.9811 27.7243 20.9811ZM24.1351 18.1241C25.327 19.0012 26.5324 19.4451 27.7228 19.4451C29.4521 19.4451 30.8602 18.0381 30.8617 16.31C30.8617 14.582 29.4536 13.175 27.7243 13.175C25.5237 13.175 24.6905 15.2363 24.3783 16.9659L24.1351 18.1241Z" fill="#DEDEDE"/>
</g>
<defs>
<clipPath id="clip0_219_215">
<rect width="36.027" height="36.8649" fill="white" transform="translate(0.270996 0.107941)"/>
</clipPath>
</defs>
</svg>
